<svg width="141" height="140" viewBox="0 0 141 140" fill="none" xmlns="http://www.w3.org/2000/svg">
<mask id="mask0" style="mask-type:alpha" maskUnits="userSpaceOnUse" x="6" y="20" width="129" height="120">
<path d="M70.5 140C105.896 140 134.591 113.137 134.591 80C134.591 46.8629 105.896 20 70.5 20C35.1036 20 6.40909 46.8629 6.40909 80C6.40909 113.137 35.1036 140 70.5 140Z" fill="white"/>
</mask>
<g mask="url(#mask0)">
<path d="M70.5 140C105.896 140 134.591 113.137 134.591 80C134.591 46.8629 105.896 20 70.5 20C35.1036 20 6.40909 46.8629 6.40909 80C6.40909 113.137 35.1036 140 70.5 140Z" fill="#E6E6E6"/>
<path d="M134.591 20H6.40909V140H134.591V20Z" fill="#65C9FF"/>
</g>
<mask id="mask1" style="mask-type:alpha" maskUnits="userSpaceOnUse" x="0" y="0" width="141" height="140">
<path d="M6.40909 80C6.40909 113.137 35.1036 140 70.5 140C105.896 140 134.591 113.137 134.591 80H141V0H0V80H6.40909Z" fill="white"/>
</mask>
<g mask="url(#mask1)">
<mask id="mask2" style="mask-type:alpha" maskUnits="userSpaceOnUse" x="17" y="18" width="107" height="122">
<path d="M83.3182 90.3055V99.5H85.4545C106.692 99.5 123.909 115.618 123.909 135.5V140H17.0909V135.5C17.0909 115.618 34.3076 99.5 55.5455 99.5H57.6818V90.3055C48.4755 86.2112 41.8579 77.8435 40.7539 67.9406C37.6429 67.5289 35.25 65.0261 35.25 62V55C35.25 52.027 37.5597 49.559 40.5909 49.083V46C40.5909 30.536 53.9817 18 70.5 18C87.0183 18 100.409 30.536 100.409 46V49.083C103.44 49.559 105.75 52.027 105.75 55V62C105.75 65.0261 103.357 67.5289 100.246 67.9406C99.1421 77.8435 92.5245 86.2112 83.3182 90.3055Z" fill="white"/>
</mask>
<g mask="url(#mask2)">
<path d="M83.3182 90.3055V99.5H85.4545C106.692 99.5 123.909 115.618 123.909 135.5V140H17.0909V135.5C17.0909 115.618 34.3076 99.5 55.5455 99.5H57.6818V90.3055C48.4755 86.2112 41.8579 77.8435 40.7539 67.9406C37.6429 67.5289 35.25 65.0261 35.25 62V55C35.25 52.027 37.5597 49.559 40.5909 49.083V46C40.5909 30.536 53.9817 18 70.5 18C87.0183 18 100.409 30.536 100.409 46V49.083C103.44 49.559 105.75 52.027 105.75 55V62C105.75 65.0261 103.357 67.5289 100.246 67.9406C99.1421 77.8435 92.5245 86.2112 83.3182 90.3055Z" fill="#D0C6AC"/>
<path d="M158.091 18H17.0909V158H158.091V18Z" fill="#EDB98A"/>
<path fill-rule="evenodd" clip-rule="evenodd" d="M100.409 57.5V69C100.409 84.464 87.0183 97 70.5 97C53.9817 97 40.5909 84.464 40.5909 69V57.5V65C40.5909 80.464 53.9817 93 70.5 93C87.0183 93 100.409 80.464 100.409 65V57.5Z" fill="black" fill-opacity="0.1"/>
</g>
<mask id="mask3" style="mask-type:alpha" maskUnits="userSpaceOnUse" x="17" y="91" width="107" height="49">
<path fill-rule="evenodd" clip-rule="evenodd" d="M57.6818 91.5354C48.1116 92.538 40.7404 95.2759 40.5932 102.322C26.7828 107.784 17.0909 120.582 17.0909 135.5V140H123.909V135.5C123.909 120.582 114.217 107.784 100.407 102.322C100.26 95.2759 92.8884 92.538 83.3182 91.5354V101C83.3182 107.627 77.5793 113 70.5 113C63.4207 113 57.6818 107.627 57.6818 101V91.5354Z" fill="white"/>
</mask>
<g mask="url(#mask3)">
<path fill-rule="evenodd" clip-rule="evenodd" d="M57.6818 91.5354C48.1116 92.538 40.7404 95.2759 40.5932 102.322C26.7828 107.784 17.0909 120.582 17.0909 135.5V140H123.909V135.5C123.909 120.582 114.217 107.784 100.407 102.322C100.26 95.2759 92.8884 92.538 83.3182 91.5354V101C83.3182 107.627 77.5793 113 70.5 113C63.4207 113 57.6818 107.627 57.6818 101V91.5354Z" fill="#B7C1DB"/>
<path d="M141 85H0V140H141V85Z" fill="#25557C"/>
<path fill-rule="evenodd" clip-rule="evenodd" d="M54.4773 115.87V140H50.7386V114.075C51.9157 114.73 53.167 115.33 54.4773 115.87ZM90.2614 114.075V134.25C90.2614 135.216 89.4244 136 88.3921 136C87.3597 136 86.5227 135.216 86.5227 134.25V115.87C87.833 115.33 89.0844 114.73 90.2614 114.075Z" fill="#F4F4F4"/>
<path fill-rule="evenodd" clip-rule="evenodd" d="M48.581 91.3622C40.5425 92.7856 34.983 95.6214 34.983 101.154C34.983 111.01 52.6281 119 70.5 119C88.3719 119 106.017 111.01 106.017 101.154C106.017 95.6214 100.458 92.7856 92.419 91.3622C97.2713 93.0372 100.409 95.853 100.409 100.538C100.409 110.734 85.5501 119 70.5 119C55.45 119 40.5909 110.734 40.5909 100.538C40.5909 95.853 43.7288 93.0372 48.581 91.3622Z" fill="black" fill-opacity="0.16"/>
</g>
<mask id="mask4" style="mask-type:alpha" maskUnits="userSpaceOnUse" x="60" y="73" width="21" height="10">
<path fill-rule="evenodd" clip-rule="evenodd" d="M60.4152 74.564C60.9802 79.3099 65.2798 83 70.5 83C75.7363 83 80.0463 79.2871 80.5899 74.52C80.6337 74.1364 80.176 73.5 79.6024 73.5C71.6476 73.5 65.5532 73.5 61.4668 73.5C60.8899 73.5 60.3587 74.0892 60.4152 74.564Z" fill="white"/>
</mask>
<g mask="url(#mask4)">
<path fill-rule="evenodd" clip-rule="evenodd" d="M60.4152 74.564C60.9802 79.3099 65.2798 83 70.5 83C75.7363 83 80.0463 79.2871 80.5899 74.52C80.6337 74.1364 80.176 73.5 79.6024 73.5C71.6476 73.5 65.5532 73.5 61.4668 73.5C60.8899 73.5 60.3587 74.0892 60.4152 74.564Z" fill="black" fill-opacity="0.7"/>
<path d="M76.375 68H65.1591C63.6842 68 62.4886 69.1193 62.4886 70.5V73.5C62.4886 74.8807 63.6842 76 65.1591 76H76.375C77.8498 76 79.0454 74.8807 79.0454 73.5V70.5C79.0454 69.1193 77.8498 68 76.375 68Z" fill="white"/>
<path d="M67.8295 90C71.0742 90 73.7045 87.5376 73.7045 84.5C73.7045 81.4624 71.0742 79 67.8295 79C64.5849 79 61.9545 81.4624 61.9545 84.5C61.9545 87.5376 64.5849 90 67.8295 90Z" fill="#FF4F6D"/>
<path d="M73.1704 90C76.4151 90 79.0454 87.5376 79.0454 84.5C79.0454 81.4624 76.4151 79 73.1704 79C69.9258 79 67.2954 81.4624 67.2954 84.5C67.2954 87.5376 69.9258 90 73.1704 90Z" fill="#FF4F6D"/>
</g>
<path fill-rule="evenodd" clip-rule="evenodd" d="M64.0909 65C64.0909 67.2091 66.9604 69 70.5 69C74.0396 69 76.9091 67.2091 76.9091 65" fill="black" fill-opacity="0.16"/>
<path fill-rule="evenodd" clip-rule="evenodd" d="M49.2219 56.2237C50.2081 54.3243 52.4287 53 55.0101 53C57.5823 53 59.7964 54.3149 60.7878 56.2036C61.0823 56.7646 60.6632 57.2237 60.2405 56.8835C58.9313 55.8299 57.0723 55.1719 55.0101 55.1719C53.0124 55.1719 51.2053 55.7894 49.9042 56.7858C49.4284 57.1502 48.9335 56.7792 49.2219 56.2237Z" fill="black" fill-opacity="0.6"/>
<path fill-rule="evenodd" clip-rule="evenodd" d="M80.1992 56.2237C81.1854 54.3243 83.406 53 85.9873 53C88.5596 53 90.7736 54.3149 91.765 56.2036C92.0595 56.7646 91.6404 57.2237 91.2177 56.8835C89.9086 55.8299 88.0495 55.1719 85.9873 55.1719C83.9896 55.1719 82.1826 55.7894 80.8814 56.7858C80.4057 57.1502 79.9107 56.7792 80.1992 56.2237Z" fill="black" fill-opacity="0.6"/>
<path d="M49.1234 49.5639C49.922 44.8024 56.6449 41.5543 61.5078 43.6505C62.0436 43.8815 62.6781 43.6621 62.9248 43.1604C63.1715 42.6588 62.9372 42.0648 62.4013 41.8338C56.2658 39.1891 48.0339 43.1662 47.0129 49.2537C46.9214 49.7993 47.3197 50.3111 47.9025 50.3967C48.4853 50.4824 49.0319 50.1096 49.1234 49.5639Z" fill="black" fill-opacity="0.6"/>
<path d="M91.8767 49.5639C91.0781 44.8024 84.3552 41.5543 79.4923 43.6505C78.9565 43.8815 78.322 43.6621 78.0753 43.1604C77.8286 42.6588 78.0629 42.0648 78.5988 41.8338C84.7343 39.1891 92.9662 43.1662 93.9872 49.2537C94.0787 49.7993 93.6804 50.3111 93.0976 50.3967C92.5148 50.4824 91.9682 50.1096 91.8767 49.5639Z" fill="black" fill-opacity="0.6"/>
<mask id="mask5" style="mask-type:alpha" maskUnits="userSpaceOnUse" x="0" y="0" width="141" height="140">
<path d="M141 0H0V140H141V0Z" fill="white"/>
</mask>
<g mask="url(#mask5)">
<mask id="mask6" style="mask-type:alpha" maskUnits="userSpaceOnUse" x="38" y="4" width="66" height="46">
<path fill-rule="evenodd" clip-rule="evenodd" d="M49.805 26.0111C49.8707 25.9839 49.7077 25.9734 49.3159 25.9798C49.7921 25.9789 49.9551 25.9893 49.805 26.0111ZM45.4602 18.1508C45.4591 18.141 45.4692 18.2263 45.4602 18.1508V18.1508ZM102.954 35.3828C102.813 33.7244 102.563 32.0759 102.143 30.4555C101.81 29.1677 101.354 27.9388 100.815 26.71C100.49 25.9677 99.7295 24.9481 99.6402 24.1472C99.5521 23.3584 100.21 22.4846 100.35 21.5662C100.486 20.6724 100.463 19.7326 100.267 18.8469C99.8222 16.8355 98.3477 14.965 96.0708 14.4407C95.5624 14.3236 94.4879 14.4679 94.1287 14.1908C93.7168 13.873 93.43 12.7903 93.0572 12.3561C91.9941 11.1181 90.3361 10.3209 88.5875 10.5988C87.2998 10.8034 88.0392 11.0527 87.0739 10.3432C86.5372 9.94881 86.1361 9.34658 85.6148 8.91961C84.8312 8.27819 83.9322 7.72909 83.0021 7.27848C80.5683 6.09946 77.7926 5.24245 75.0741 4.82471C70.1149 4.06262 64.8221 4.72704 60.0151 5.93441C57.6232 6.53517 55.2152 7.29759 52.9936 8.30589C52.0411 8.7382 51.4912 9.09682 50.498 9.21004C48.9338 9.38837 47.6091 9.37946 46.1274 10.0005C41.5682 11.9115 39.5147 16.3449 41.2888 20.5875C41.6457 21.4408 42.1289 22.1901 42.795 22.8793C43.6072 23.7196 43.901 23.5543 43.2014 24.5206C42.1553 25.9656 41.2733 27.5065 40.5553 29.1064C38.6705 33.3073 38.3551 38.0386 38.4779 42.5187C38.5208 44.0871 38.5927 45.6748 38.8568 47.2281C38.9709 47.9005 39.0029 49.1647 39.5416 49.6636C39.815 49.9166 40.2044 50.0576 40.5928 49.9569C41.5059 49.7201 41.1919 49.0894 41.2131 48.5038C41.3199 45.562 41.1758 42.9596 41.9231 40.0532C42.4751 37.9059 43.3952 35.9557 44.5874 34.0357C46.1035 31.5936 47.7401 29.4489 49.8251 27.3578C50.3153 26.866 50.4224 26.6575 51.0797 26.6219C51.5775 26.595 52.3056 26.9141 52.7895 27.0246C53.8565 27.268 54.9255 27.5087 56.0119 27.6726C58.0094 27.9741 59.9872 27.9943 62.0027 27.9352C65.969 27.8191 69.9525 27.5586 73.7981 26.6235C76.352 26.0027 78.6163 24.8881 81.0627 24.0711C81.1063 24.0565 81.7195 23.6476 81.8269 23.6642C81.977 23.6874 82.8828 24.5771 83.0357 24.6892C84.2244 25.5619 85.5282 25.9283 86.8119 26.6041C88.3947 27.4373 86.8619 26.245 87.7348 27.2834C87.9893 27.5858 88.1196 28.1466 88.3237 28.4892C88.9731 29.5806 89.8766 30.5398 90.9573 31.3009C92.0015 32.0363 93.5707 32.3915 94.1031 33.3486C94.5137 34.087 94.6521 35.0906 94.9835 35.879C95.8526 37.9466 97.0005 39.8747 98.1484 41.8222C99.0731 43.3915 100.085 44.7625 100.187 46.5559C100.223 47.1802 99.5886 50.9247 101.134 49.7859C101.363 49.6171 101.857 47.7079 101.959 47.3839C102.371 46.0675 102.517 44.6933 102.704 43.3408C103.074 40.6511 103.196 38.0919 102.954 35.3828Z" fill="white"/>
</mask>
<g mask="url(#mask6)">
<path fill-rule="evenodd" clip-rule="evenodd" d="M49.805 26.0111C49.8707 25.9839 49.7077 25.9734 49.3159 25.9798C49.7921 25.9789 49.9551 25.9893 49.805 26.0111ZM45.4602 18.1508C45.4591 18.141 45.4692 18.2263 45.4602 18.1508V18.1508ZM102.954 35.3828C102.813 33.7244 102.563 32.0759 102.143 30.4555C101.81 29.1677 101.354 27.9388 100.815 26.71C100.49 25.9677 99.7295 24.9481 99.6402 24.1472C99.5521 23.3584 100.21 22.4846 100.35 21.5662C100.486 20.6724 100.463 19.7326 100.267 18.8469C99.8222 16.8355 98.3477 14.965 96.0708 14.4407C95.5624 14.3236 94.4879 14.4679 94.1287 14.1908C93.7168 13.873 93.43 12.7903 93.0572 12.3561C91.9941 11.1181 90.3361 10.3209 88.5875 10.5988C87.2998 10.8034 88.0392 11.0527 87.0739 10.3432C86.5372 9.94881 86.1361 9.34658 85.6148 8.91961C84.8312 8.27819 83.9322 7.72909 83.0021 7.27848C80.5683 6.09946 77.7926 5.24245 75.0741 4.82471C70.1149 4.06262 64.8221 4.72704 60.0151 5.93441C57.6232 6.53517 55.2152 7.29759 52.9936 8.30589C52.0411 8.7382 51.4912 9.09682 50.498 9.21004C48.9338 9.38837 47.6091 9.37946 46.1274 10.0005C41.5682 11.9115 39.5147 16.3449 41.2888 20.5875C41.6457 21.4408 42.1289 22.1901 42.795 22.8793C43.6072 23.7196 43.901 23.5543 43.2014 24.5206C42.1553 25.9656 41.2733 27.5065 40.5553 29.1064C38.6705 33.3073 38.3551 38.0386 38.4779 42.5187C38.5208 44.0871 38.5927 45.6748 38.8568 47.2281C38.9709 47.9005 39.0029 49.1647 39.5416 49.6636C39.815 49.9166 40.2044 50.0576 40.5928 49.9569C41.5059 49.7201 41.1919 49.0894 41.2131 48.5038C41.3199 45.562 41.1758 42.9596 41.9231 40.0532C42.4751 37.9059 43.3952 35.9557 44.5874 34.0357C46.1035 31.5936 47.7401 29.4489 49.8251 27.3578C50.3153 26.866 50.4224 26.6575 51.0797 26.6219C51.5775 26.595 52.3056 26.9141 52.7895 27.0246C53.8565 27.268 54.9255 27.5087 56.0119 27.6726C58.0094 27.9741 59.9872 27.9943 62.0027 27.9352C65.969 27.8191 69.9525 27.5586 73.7981 26.6235C76.352 26.0027 78.6163 24.8881 81.0627 24.0711C81.1063 24.0565 81.7195 23.6476 81.8269 23.6642C81.977 23.6874 82.8828 24.5771 83.0357 24.6892C84.2244 25.5619 85.5282 25.9283 86.8119 26.6041C88.3947 27.4373 86.8619 26.245 87.7348 27.2834C87.9893 27.5858 88.1196 28.1466 88.3237 28.4892C88.9731 29.5806 89.8766 30.5398 90.9573 31.3009C92.0015 32.0363 93.5707 32.3915 94.1031 33.3486C94.5137 34.087 94.6521 35.0906 94.9835 35.879C95.8526 37.9466 97.0005 39.8747 98.1484 41.8222C99.0731 43.3915 100.085 44.7625 100.187 46.5559C100.223 47.1802 99.5886 50.9247 101.134 49.7859C101.363 49.6171 101.857 47.7079 101.959 47.3839C102.371 46.0675 102.517 44.6933 102.704 43.3408C103.074 40.6511 103.196 38.0919 102.954 35.3828Z" fill="#28354B"/>
<path d="M140.466 0H-0.534088V140H140.466V0Z" fill="#2C1B18"/>
<g filter="url(#filter0_d)">
<path d="M53.9432 66.5H52.4703C45.0318 66.5 40.5909 62.668 40.5909 56.25C40.5909 51.0635 41.5614 46 53.1581 46H54.7284C66.325 46 67.2955 51.0635 67.2955 56.25C67.2955 62.2843 61.8057 66.5 53.9432 66.5ZM53.0809 49C42.7273 49 42.7273 52.4205 42.7273 56.7508C42.7273 60.286 44.3917 64.5 52.3254 64.5H53.9432C60.5472 64.5 65.1591 61.3135 65.1591 56.7508C65.1591 52.4205 65.1591 49 54.8056 49H53.0809Z" fill="#252C2F"/>
<path d="M87.0568 66.5H85.5839C78.1454 66.5 73.7046 62.668 73.7046 56.25C73.7046 51.0635 74.675 46 86.2717 46H87.842C99.4387 46 100.409 51.0635 100.409 56.25C100.409 62.2843 94.9193 66.5 87.0568 66.5ZM86.1945 49C75.8409 49 75.8409 52.4205 75.8409 56.7508C75.8409 60.286 77.507 64.5 85.439 64.5H87.0568C93.6608 64.5 98.2727 61.3135 98.2727 56.7508C98.2727 52.4205 98.2727 49 87.9192 49H86.1945Z" fill="#252C2F"/>
<path d="M37.3621 48.8858C37.7314 48.5481 41.771 46 53.1421 46C62.6763 46 64.6946 46.9263 67.7496 48.3259L67.9732 48.4293C68.1856 48.4995 69.2718 48.8449 70.5423 48.8829C71.6998 48.8364 72.6898 48.5427 72.9791 48.4486C76.466 46.861 79.8793 46 87.858 46C99.229 46 103.269 48.5481 103.638 48.8858C104.511 48.8858 105.216 49.5308 105.216 50.3287V51.7716C105.216 52.5695 104.511 53.2145 103.638 53.2145C103.638 53.2145 99.9519 53.2145 99.9519 54.6573C99.9519 56.1002 98.904 52.5695 98.904 51.7716V50.3662C96.9795 49.6767 93.5345 48.3931 87.858 48.3931C81.5335 48.3931 78.3838 49.443 75.6819 50.4856L75.7122 50.5538L75.7108 51.5469L74.5266 54.2218L73.0639 53.6804C72.9333 53.6321 72.6514 53.5452 72.2606 53.455C71.171 53.2034 70.0508 53.1268 69.0602 53.3172C68.6967 53.387 68.3595 53.4918 68.0501 53.6334L66.6388 54.2789L65.2268 51.6981L65.2895 50.5509L65.3326 50.4534C63.0025 49.4369 60.854 48.3931 53.1421 48.3931C47.4658 48.3931 44.0209 49.6762 42.0961 50.3657V51.7716C42.0961 52.5695 40.5181 56.1002 40.5181 54.6573C40.5181 53.2145 37.3621 53.2145 37.3621 53.2145C36.4911 53.2145 35.7841 52.5695 35.7841 51.7716V50.3287C35.7841 49.5308 36.4911 48.8858 37.3621 48.8858Z" fill="#252C2F"/>
</g>
</g>
</g>
</g>
<defs>
<filter id="filter0_d" x="31.7841" y="44" width="77.4318" height="28.5" filterUnits="userSpaceOnUse" color-interpolation-filters="sRGB">
<feFlood flood-opacity="0" result="BackgroundImageFix"/>
<feColorMatrix in="SourceAlpha" type="matrix" values="0 0 0 0 0 0 0 0 0 0 0 0 0 0 0 0 0 0 127 0" result="hardAlpha"/>
<feOffset dy="2"/>
<feGaussianBlur stdDeviation="2"/>
<feColorMatrix type="matrix" values="0 0 0 0 0 0 0 0 0 0 0 0 0 0 0 0 0 0 0.2 0"/>
<feBlend mode="normal" in2="BackgroundImageFix" result="effect1_dropShadow"/>
<feBlend mode="normal" in="SourceGraphic" in2="effect1_dropShadow" result="shape"/>
</filter>
</defs>
</svg>
